<svg width="35" height="35" viewBox="0 0 35 35" fill="none" xmlns="http://www.w3.org/2000/svg">
<rect width="35" height="35" fill="white"/>
<path fill-rule="evenodd" clip-rule="evenodd" d="M30 0V5H35V8.33333H30V13.3167C30 13.3167 26.6833 13.3333 26.6667 13.3167V8.33333H21.6667C21.6667 8.33333 21.6833 5.01667 21.6667 5H26.6667V0H30ZM26.6667 31.6667H3.33333V8.33333H18.3333V5H3.33333C1.5 5 0 6.5 0 8.33333V31.6667C0 33.5 1.5 35 3.33333 35H26.6667C28.5 35 30 33.5 30 31.6667V16.6667H26.6667V31.6667ZM13.6833 26.3832L10.4167 22.4499L5.83333 28.3332H24.1667L18.2667 20.4832L13.6833 26.3832Z" fill="black" fill-opacity="0.54"/>
</svg>
