<?xml version="1.0" encoding="utf-8"?>
<!-- Generator: Adobe Illustrator 24.1.2, SVG Export Plug-In . SVG Version: 6.00 Build 0)  -->
<svg version="1.1" id="Capa_1" xmlns="http://www.w3.org/2000/svg" xmlns:xlink="http://www.w3.org/1999/xlink" x="0px" y="0px"
	 viewBox="0 0 87 72.4" style="enable-background:new 0 0 87 72.4;" xml:space="preserve">
<style type="text/css">
	.st0{fill:#454545;}
</style>
<path class="st0" d="M87,35.1c0-0.2,0-0.4-0.1-0.5c-0.2-0.7-0.7-1.4-1.5-1.8L3.5,0.2C1.4-0.7-0.7,1.5,0.3,3.6l15.2,31.6L0.2,68.8
	l1.4,0.6l0,0l-1.4-0.6c-0.9,2.1,1.2,4.2,3.3,3.3l82-34.7c0.9-0.4,1.3-1.1,1.5-1.9C87,35.4,87,35.3,87,35.1z M19.8,32.6L7.6,7.2
	l63.8,25.4H19.8z M19.9,37.6h52.4L7.4,65.1L19.9,37.6z M18.9,36.1L18.9,36.1L18.9,36.1L18.9,36.1z M16.9,34.7l-1.4,0.7l0,0
	L16.9,34.7L16.9,34.7z"/>
</svg>
