<?xml version="1.0" encoding="utf-8"?>
<!-- Generator: Adobe Illustrator 23.0.3, SVG Export Plug-In . SVG Version: 6.00 Build 0)  -->
<svg version="1.1" id="Capa_1" xmlns="http://www.w3.org/2000/svg" xmlns:xlink="http://www.w3.org/1999/xlink" x="0px" y="0px"
	 viewBox="0 0 200 117.1" style="enable-background:new 0 0 200 117.1;" xml:space="preserve">
<style type="text/css">
	.st0{fill:#FFFFFF;}
</style>
<path class="st0" d="M15.7,56.2c0.8-2.6,1.5-4.9,2-6.9c0.6-2,1.1-4,1.7-6.1c0.6-2.1,1.2-4.4,1.8-7c0.6-2.6,1.4-5.8,2.4-9.7
	c0.2-0.7,0.4-1.2,0.6-1.3c0.3-0.2,0.8-0.3,1.7-0.3c0.4,0,0.9,0,1.7,0.1c0.8,0,1.6,0.2,2.5,0.5c0.8,0.3,1.5,0.7,2.2,1.2
	c0.6,0.5,0.9,1.3,0.9,2.3c0,0.9-0.3,2.3-0.8,4.1c-0.5,1.8-1.1,3.9-1.9,6.2c-0.8,2.3-1.7,4.8-2.6,7.4c-0.9,2.5-1.9,4.9-2.8,7.2
	s-1.8,4.3-2.6,6c-0.7,1.7-1.3,2.9-1.7,3.6c-0.4,0.7-1.1,1.1-2.2,1.1h-5.9c-0.9,0-1.7-0.2-2.3-0.5c-0.6-0.4-1.1-0.9-1.5-1.5
	c-0.4-0.6-0.7-1.3-1-2c-0.3-0.8-0.5-1.6-0.7-2.3C6,52.9,4.9,48.3,4,44.4c-0.9-3.9-1.6-7.2-2.2-9.8c-0.6-2.6-1-4.7-1.3-6.1
	C0.1,27.2,0,26.3,0,26c0-0.4,0.3-0.7,0.9-0.9c0.6-0.2,1.6-0.3,3-0.3c1.5,0,2.7,0.1,3.6,0.4c1,0.3,1.7,0.7,2.3,1.3
	c0.6,0.5,1,1.2,1.3,1.9c0.3,0.7,0.5,1.5,0.6,2.3c0.1,0.6,0.2,1.4,0.3,2.3c0.1,0.9,0.3,2.2,0.6,4c0.3,1.8,0.7,4.2,1.2,7.3
	C14.3,47.2,14.9,51.2,15.7,56.2z M55.6,24.2c2.7,0,5,0.4,7,1.2c1.9,0.7,3.5,1.9,4.7,3.3c1.2,1.5,2.1,3.2,2.7,5.4
	c0.6,2.1,0.8,4.5,0.8,7.1c0,1.5-0.1,3.1-0.3,4.9c-0.2,1.7-0.6,3.5-1.1,5.3c-0.5,1.7-1.2,3.4-2.2,5.1c-0.9,1.6-2.1,3.1-3.6,4.4
	c-1.5,1.3-3.2,2.3-5.2,3.1c-2,0.7-4.5,1.1-7.3,1.1c-3.1,0-5.7-0.5-7.7-1.4c-2-0.9-3.6-2.2-4.9-3.7c-1.2-1.6-2-3.5-2.6-5.6
	c-0.5-2.2-0.7-4.5-0.7-6.9c0-2.9,0.3-5.7,1-8.5c0.7-2.8,1.8-5.3,3.3-7.4c1.6-2.2,3.7-3.9,6.3-5.2C48.5,24.9,51.7,24.2,55.6,24.2z
	 M54.4,32.9c-1.3,0-2.4,0.2-3.4,0.7c-0.9,0.4-1.7,1.1-2.4,1.8c-0.6,0.8-1.2,1.7-1.6,2.6c-0.4,1-0.7,2-0.9,3c-0.2,1-0.4,2-0.4,3
	c-0.1,0.9-0.1,1.8-0.1,2.5c0,3.4,0.6,5.9,1.7,7.4c1.2,1.6,2.8,2.3,4.9,2.3c1.7,0,3.1-0.5,4.2-1.6c1.1-1.1,1.9-2.4,2.5-4
	c0.6-1.6,1.1-3.2,1.3-4.8c0.2-1.7,0.3-3.1,0.3-4.2c0-2.7-0.5-4.9-1.4-6.4C58.1,33.7,56.6,32.9,54.4,32.9z M73.1,64.5
	c-0.4,0-0.6-0.2-0.6-0.6l0.2-3c0-0.3,0.1-0.7,0.2-1.2c0.1-0.5,0.2-0.9,0.5-1.3c0.6-1.2,1.4-2.4,2.3-3.7s2-3,3.2-4.9
	c1.3-1.9,2.7-4.3,4.4-7c1.7-2.8,3.7-6.1,5.9-10H76.4c-0.3,0-0.5-0.1-0.6-0.2c0-0.1-0.1-0.3-0.1-0.6l0.2-3.1c0-0.5,0.1-0.9,0.2-1.4
	c0.1-0.5,0.3-0.9,0.6-1.3c0.3-0.4,0.7-0.7,1.2-0.9c0.5-0.2,1.2-0.3,2.1-0.3h21.3c0.2,0,0.4,0.1,0.6,0.2c0.2,0.1,0.3,0.3,0.3,0.6
	l-0.2,3c-0.1,1-0.3,1.8-0.7,2.4c-0.1,0.2-0.7,1.1-1.6,2.7c-1,1.6-2.2,3.6-3.7,6c-1.5,2.4-3.2,5.1-5,8.1c-1.8,3-3.7,5.9-5.5,8.9h14.2
	c0.2,0,0.4,0.1,0.6,0.2c0.2,0.1,0.3,0.3,0.3,0.6l-0.2,3.3c-0.1,1.1-0.4,2-0.9,2.7c-0.5,0.7-1.6,1-3.3,1H73.1z"/>
<path class="st0" d="M48.6,76.9c0.9,0,1.7,0.2,2.3,0.6c0.6,0.3,1.2,0.8,1.6,1.4c0.4,0.6,0.7,1.2,1,2c0.3,0.7,0.5,1.5,0.7,2.3
	c1.5,6,2.7,11,3.7,14.9c1,3.9,1.7,7.1,2.3,9.5c0.6,2.4,0.9,4.1,1.2,5.3c0.2,1.2,0.3,2,0.3,2.4c0,0.5-0.1,0.9-0.4,1.1
	c-0.2,0.2-0.6,0.3-1.1,0.3h-2.8c-1.6,0-2.9-0.2-3.8-0.6c-0.9-0.4-1.7-1-2.2-1.7c-0.5-0.7-0.8-1.6-1.1-2.7c-0.2-1.1-0.4-2.3-0.6-3.6
	h-9.7l-1.8,7.7c-0.2,0.6-0.6,0.9-1.3,0.9h-3c-0.6,0-1.2-0.1-1.8-0.2c-0.6-0.1-1.2-0.4-1.7-0.7c-0.5-0.3-0.9-0.7-1.2-1.1
	c-0.3-0.5-0.5-1.1-0.5-1.7c0-0.8,0.3-2.2,0.8-4c0.5-1.9,1.2-4,2-6.3c0.8-2.4,1.7-4.9,2.7-7.4c1-2.6,2-5.1,2.9-7.4s1.8-4.3,2.5-6.1
	c0.8-1.7,1.4-3,1.8-3.7c0.3-0.5,0.6-0.8,0.8-0.9c0.3-0.1,0.7-0.2,1.4-0.2H48.6z M41.9,99.9h6.4l-2.3-14.7L41.9,99.9z M100.9,86.8
	c-0.3,0.9-0.7,2.1-1.2,3.5c-0.4,1.4-0.9,3-1.5,4.7c-0.6,1.7-1.1,3.5-1.7,5.5c-0.6,1.9-1.2,3.8-1.8,5.6c-0.6,1.8-1.2,3.6-1.8,5.2
	c-0.6,1.6-1.1,3.1-1.6,4.3c-0.1,0.3-0.5,0.5-0.9,0.7c-0.4,0.1-1.2,0.2-2.2,0.2c-0.6,0-1.3,0-2-0.1c-0.7-0.1-1.3-0.2-1.9-0.4
	c-0.6-0.2-1.1-0.5-1.5-0.9c-0.4-0.4-0.7-0.8-0.9-1.4c-0.6-1.9-1.1-4-1.6-6.3c-0.5-2.3-1-4.7-1.5-7.1c-0.5-2.4-1-4.8-1.5-7.1
	c-0.4-2.3-0.9-4.5-1.4-6.4c0,0.5,0,1.4-0.1,2.7c0,1.3-0.1,2.7-0.1,4.4c0,1.7-0.1,3.5-0.2,5.4c0,1.9-0.1,3.8-0.1,5.7
	c0,1.8-0.1,3.5-0.1,5.1c0,1.6-0.1,2.8-0.1,3.8c0,1.1-0.1,1.8-0.2,2.1c-0.1,0.3-0.3,0.4-0.7,0.4h-3.1c-2.1,0-3.6-0.4-4.5-1.2
	c-0.9-0.9-1.3-2.1-1.3-3.7c0-0.4,0-1.2,0.1-2.2c0.1-1.1,0.2-2.3,0.3-3.8c0.1-1.5,0.2-3,0.3-4.7c0.1-1.7,0.3-3.5,0.4-5.3
	c0.2-2.4,0.3-4.4,0.4-6c0.1-1.6,0.3-3,0.3-4.1c0.1-1.1,0.1-2,0.2-2.6c0.1-0.7,0.1-1.3,0.1-1.8c0-0.5,0.1-1,0.1-1.5
	c0-0.5,0.1-1.1,0.1-1.8c0-0.3,0.1-0.5,0.3-0.6c0.2-0.1,0.4-0.2,0.6-0.2h7.8c1.5,0,2.6,0.2,3.6,0.7c0.9,0.4,1.7,1.2,2.3,2.1
	c0.6,1,1.1,2.2,1.5,3.8c0.4,1.5,0.7,3.3,1,5.5c0.3,2.1,0.7,4.6,1.1,7.4c0.4,2.8,0.9,5.9,1.6,9.3c0.6-2.3,1.1-4.2,1.5-5.7
	c0.4-1.5,0.7-2.8,1-3.8c0.3-1,0.5-1.9,0.7-2.6c0.2-0.7,0.4-1.3,0.5-1.8c0.1-0.6,0.3-1.2,0.5-1.9c0.2-0.7,0.4-1.5,0.7-2.5
	c0.3-1,0.6-2.3,0.9-3.7c0.4-1.5,0.9-3.4,1.5-5.7c0.1-0.2,0.2-0.4,0.4-0.6c0.2-0.2,0.5-0.3,1-0.3h8.7c1.2,0,2.1,0.1,2.8,0.4
	c0.7,0.2,1.3,0.6,1.7,1c0.4,0.4,0.7,1,0.8,1.7c0.1,0.6,0.2,1.4,0.2,2.2s-0.1,2.3-0.2,4.2c-0.1,1.9-0.2,4.1-0.4,6.5
	c-0.1,2.4-0.3,4.9-0.5,7.4c-0.1,2.6-0.3,4.9-0.5,7.1c-0.1,2.2-0.3,4.1-0.4,5.6c-0.1,1.5-0.2,2.4-0.2,2.7c0,0.3-0.1,0.5-0.2,0.7
	c-0.1,0.1-0.3,0.2-0.7,0.2h-3.1c-2.1,0-3.6-0.4-4.5-1.2c-0.9-0.9-1.3-2-1.3-3.3c0-0.4,0-1.2,0.1-2.2c0.1-1.1,0.2-2.3,0.4-3.8
	c0.1-1.5,0.3-3,0.5-4.7c0.2-1.7,0.4-3.5,0.5-5.2c0.1-1.7,0.3-3.4,0.4-5C100.7,89.5,100.8,88,100.9,86.8z M122,116.5
	c-2.1,0-3.6-0.4-4.5-1.2s-1.3-2-1.3-3.5c0-0.7,0.1-2,0.2-3.8c0.1-1.8,0.3-3.9,0.4-6.2c0.2-2.3,0.4-4.7,0.6-7.3
	c0.2-2.6,0.4-5,0.6-7.3c0.2-2.3,0.3-4.3,0.4-6c0.1-1.7,0.2-2.9,0.2-3.5c0-0.6,0.3-0.8,0.9-0.8h3.1c2.3,0,3.8,0.5,4.6,1.5
	s1.2,2.4,1.2,4.3c0,0.2,0,0.8-0.1,1.8c0,1-0.1,2.3-0.2,3.8c-0.1,1.5-0.2,3.2-0.4,5.1c-0.1,1.9-0.2,3.8-0.4,5.7
	c-0.1,2-0.2,3.9-0.4,5.8c-0.1,1.9-0.2,3.6-0.3,5.1c-0.1,1.5-0.2,2.8-0.3,3.8c-0.1,1-0.1,1.6-0.2,1.8c0,0.3-0.1,0.5-0.2,0.7
	c-0.1,0.1-0.3,0.2-0.7,0.2H122z M158.5,116.5c-1.9,0-3.3-0.4-4.2-1.2c-0.8-0.8-1.3-1.8-1.3-3c-0.4,1.3-1.3,2.4-2.6,3.3
	c-1.3,0.9-3.2,1.4-5.7,1.4c-1.5,0-2.9-0.3-4.2-0.8c-1.4-0.6-2.6-1.6-3.7-2.9c-1.1-1.3-2-3.1-2.6-5.4c-0.6-2.2-0.9-5-0.9-8.3
	c0-1.3,0.1-2.7,0.2-4.4c0.1-1.7,0.4-3.4,0.9-5.1c0.5-1.7,1.2-3.4,2-5.1c0.9-1.7,2-3.2,3.5-4.5c1.5-1.3,3.2-2.3,5.3-3.1
	c2.1-0.8,4.6-1.2,7.5-1.2c1.9,0,3.6,0.2,5.1,0.6c1.5,0.4,2.8,1,3.8,1.7c1.1,0.7,1.9,1.7,2.5,2.7c0.6,1.1,0.9,2.3,0.9,3.6
	c0,2.2-0.7,3.8-2.1,4.9c-1.4,1.1-3.4,1.6-6,1.6c-0.8,0-1.3-0.1-1.5-0.2c-0.1-0.1-0.2-0.4-0.3-0.8c-0.1-0.7-0.1-1.3-0.2-2
	c0-0.7-0.1-1.3-0.3-1.8c-0.1-0.6-0.4-1-0.8-1.3c-0.4-0.3-1.1-0.5-2-0.5c-1.8,0-3.3,0.5-4.4,1.6c-1.1,1-1.9,2.3-2.5,3.8
	c-0.6,1.5-0.9,3-1.1,4.6c-0.1,1.6-0.2,2.9-0.2,4c0,1.8,0.1,3.3,0.3,4.5c0.2,1.2,0.5,2.2,0.9,3c0.4,0.7,1,1.3,1.6,1.6
	c0.6,0.3,1.3,0.4,2.1,0.4c1.4,0,2.6-0.3,3.6-0.9c1-0.6,1.5-1.7,1.7-3.2l0.3-3.1c0.1-1.1,0.3-2,0.4-2.6c0.2-0.7,0.6-1.1,1.3-1.1h3.1
	c0.9,0,1.7,0.1,2.2,0.3c0.6,0.2,1,0.5,1.3,1c0.3,0.4,0.6,1,0.7,1.8c0.1,0.7,0.2,1.7,0.2,2.7c0,0.7,0,1.7-0.1,3
	c0,1.2-0.1,2.5-0.2,3.7c-0.1,1.3-0.2,2.4-0.3,3.5c-0.1,1-0.2,1.8-0.3,2.2c-0.1,0.3-0.2,0.6-0.3,0.7c-0.1,0.1-0.3,0.2-0.7,0.2H158.5z
	 M187,76.9c0.9,0,1.7,0.2,2.3,0.6c0.6,0.3,1.2,0.8,1.6,1.4c0.4,0.6,0.7,1.2,1,2c0.3,0.7,0.5,1.5,0.7,2.3c1.5,6,2.7,11,3.7,14.9
	c1,3.9,1.7,7.1,2.3,9.5c0.6,2.4,0.9,4.1,1.2,5.3c0.2,1.2,0.3,2,0.3,2.4c0,0.5-0.1,0.9-0.4,1.1c-0.2,0.2-0.6,0.3-1.1,0.3h-2.8
	c-1.6,0-2.9-0.2-3.8-0.6c-0.9-0.4-1.7-1-2.2-1.7c-0.5-0.7-0.8-1.6-1.1-2.7c-0.2-1.1-0.4-2.3-0.6-3.6h-9.7l-1.8,7.7
	c-0.2,0.6-0.6,0.9-1.3,0.9h-3c-0.6,0-1.2-0.1-1.8-0.2c-0.6-0.1-1.2-0.4-1.7-0.7c-0.5-0.3-0.9-0.7-1.2-1.1c-0.3-0.5-0.5-1.1-0.5-1.7
	c0-0.8,0.3-2.2,0.8-4c0.5-1.9,1.2-4,2-6.3c0.8-2.4,1.7-4.9,2.7-7.4c1-2.6,2-5.1,2.9-7.4s1.8-4.3,2.5-6.1c0.8-1.7,1.4-3,1.8-3.7
	c0.3-0.5,0.6-0.8,0.8-0.9c0.3-0.1,0.7-0.2,1.4-0.2H187z M180.3,99.9h6.4l-2.3-14.7L180.3,99.9z"/>
<path class="st0" d="M159.1,26.4c1.4,0,2.6,1.2,2.6,2.6s-1.2,2.6-2.6,2.6c-1.4,0-2.6-1.2-2.6-2.6S157.7,26.4,159.1,26.4z M168.3,29
	c0,1.4,1.2,2.6,2.6,2.6c1.4,0,2.6-1.2,2.6-2.6s-1.2-2.6-2.6-2.6C169.5,26.4,168.3,27.6,168.3,29z M144.7,29c0,1.4,1.2,2.6,2.6,2.6
	c1.4,0,2.6-1.2,2.6-2.6s-1.2-2.6-2.6-2.6C145.9,26.4,144.7,27.6,144.7,29z M160.7,54.2c-0.5,0-1,0-1.5,0c-4.2,0-8.3-0.8-12-2.3
	c-0.6-0.3-1.4-0.3-2,0l-11.9,5l4-9.5c0.4-0.9,0.2-2-0.5-2.8c-3.8-4.3-5.9-9.5-5.9-14.9c0-13.5,12.7-24.6,28.2-24.6
	s28.2,11,28.2,24.6c0,3.2-0.8,6.4-2.3,9.6c-0.6,1.3-0.1,2.9,1.2,3.5c1.3,0.6,2.9,0.1,3.5-1.2c1.9-3.9,2.9-7.9,2.9-11.9
	c0-16.4-15-29.8-33.5-29.8s-33.5,13.4-33.5,29.8c0,6.2,2.1,12.1,6.1,17.1l-5.9,14c-0.4,1-0.2,2.1,0.6,2.9c0.5,0.5,1.2,0.8,1.8,0.8
	c0.3,0,0.7-0.1,1-0.2l16.9-7.1c4.1,1.5,8.5,2.3,13,2.3c0.6,0,1.1,0,1.7,0c1.4-0.1,2.6-1.3,2.5-2.7C163.4,55.3,162.2,54.1,160.7,54.2
	z"/>
</svg>
